<?xml version="1.0" encoding="UTF-8"?>
<svg id="Layer_1" data-name="Layer 1" xmlns="http://www.w3.org/2000/svg" viewBox="0 0 971.49 792">
  <defs>
    <style>
      .cls-1 {
        fill: #704214;
      }
    </style>
  </defs>
  <path class="cls-1" d="M874.79,550.41c0,3.76-.34,7.56,.07,11.28,.73,6.6-2.72,10.21-8.15,12.64-8.85,3.95-18.2,4.82-27.74,4.14-6.1-.43-12.06-1.58-17.66-4.22-5.39-2.54-8.13-6.19-8.12-12.73,.2-91.63,.17-183.26,.08-274.89,0-4.81,1.87-8.06,5.87-10.18,2.55-1.35,5.24-2.59,8.02-3.35,11.29-3.12,22.63-3.08,33.94-.03,1.92,.52,3.8,1.26,5.62,2.07,5.42,2.42,8.37,5.99,8.24,12.6-.4,19.54-.22,39.09-.06,58.63,.02,2.68,.75,5.61,1.99,8,10.21,19.68,20.61,39.26,30.96,58.87,.42,.8,.87,1.58,1.84,2.39,.06-.9,.18-1.79,.18-2.69,.01-10.45,.12-20.91-.04-31.36-.06-4.1,1.49-7.17,4.92-9.04,3.08-1.69,6.34-3.26,9.71-4.17,10.74-2.91,21.58-2.84,32.35-.06,2.45,.63,4.84,1.59,7.14,2.65,5.04,2.32,7.54,5.86,7.52,11.93-.18,91.81-.16,183.62-.07,275.43,0,4.83-1.91,7.93-5.82,10.22-6.37,3.72-13.43,4.96-20.63,5.46-7.67,.54-15.27-.13-22.61-2.58-2.56-.86-5.05-2.05-7.39-3.41-3.57-2.07-5.21-5.16-5.16-9.48,.17-14.27,.11-28.54,.01-42.81-.01-1.82-.44-3.84-1.3-5.43-10.54-19.41-21.19-38.75-31.82-58.11-.37-.67-.83-1.28-1.25-1.93-.22,.05-.43,.1-.65,.15Zm34.33-8.02l.59-.16c.05-.62,.15-1.24,.15-1.87,0-16.54,.05-33.08-.05-49.62,0-1.64-.54-3.43-1.31-4.89-10.58-20.2-21.24-40.35-31.89-60.52-.35-.67-.79-1.3-1.55-2.51-.14,1.18-.25,1.68-.25,2.19-.01,17.54-.04,35.08,.05,52.61,0,1.55,.53,3.25,1.28,4.63,8.76,16.13,17.6,32.21,26.42,48.3,2.17,3.95,4.37,7.89,6.55,11.84Z"/>
</svg>