<?xml version="1.0" encoding="UTF-8"?>
<svg id="Layer_1" data-name="Layer 1" xmlns="http://www.w3.org/2000/svg" viewBox="0 0 1872.64 933.87">
  <defs>
    <style>
      .cls-1 {
        fill: #ffff3d;
      }
    </style>
  </defs>
  <polygon class="cls-1" points="1581.48 555.28 1585.87 564.18 1595.69 565.61 1588.59 572.53 1590.26 582.31 1581.48 577.69 1572.7 582.31 1574.38 572.53 1567.27 565.61 1577.09 564.18 1581.48 555.28"/>
  <polygon class="cls-1" points="1454.61 257.05 1463.56 261.33 1472.16 256.38 1470.86 266.22 1478.22 272.87 1468.47 274.67 1464.42 283.73 1459.69 275.01 1449.82 273.96 1456.66 266.76 1454.61 257.05"/>
  <polygon class="cls-1" points="1752.42 75.24 1757.94 83.49 1767.87 83.61 1761.73 91.41 1764.68 100.89 1755.37 97.46 1747.27 103.2 1747.65 93.28 1739.69 87.35 1749.24 84.64 1752.42 75.24"/>
  <polygon class="cls-1" points="1573.49 874.07 1576.31 883.58 1585.74 886.65 1577.57 892.27 1577.56 902.2 1569.69 896.16 1560.25 899.22 1563.56 889.87 1557.73 881.84 1567.65 882.09 1573.49 874.07"/>
  <polygon class="cls-1" points="799.83 358.41 796.87 367.88 803 375.68 793.07 375.8 787.54 384.03 784.37 374.63 774.82 371.91 782.79 365.99 782.42 356.07 790.51 361.82 799.83 358.41"/>
  <polygon class="cls-1" points="375.26 281.24 371.31 290.34 376.56 298.76 366.68 297.81 360.3 305.41 358.15 295.72 348.95 291.99 357.5 286.96 358.2 277.06 365.63 283.64 375.26 281.24"/>
  <polygon class="cls-1" points="521.52 672.42 526.19 681.18 536.05 682.3 529.16 689.44 531.15 699.17 522.22 694.83 513.59 699.72 514.96 689.89 507.64 683.19 517.41 681.46 521.52 672.42"/>
  <polygon class="cls-1" points="993.54 804.3 1002.09 809.34 1011.08 805.15 1008.93 814.84 1015.7 822.1 1005.82 823.05 1001 831.73 997.05 822.63 987.31 820.73 994.74 814.15 993.54 804.3"/>
  <polygon class="cls-1" points="990.3 133.35 988.25 143.06 995.08 150.25 985.22 151.3 980.48 160.02 976.44 150.96 966.68 149.16 974.05 142.51 972.75 132.67 981.35 137.63 990.3 133.35"/>
  <polygon class="cls-1" points="319.28 538.85 318.14 548.71 325.61 555.24 315.89 557.2 311.99 566.33 307.12 557.68 297.23 556.8 303.95 549.49 301.74 539.82 310.76 543.95 319.28 538.85"/>
  <polygon class="cls-1" points="1131.12 403.33 1136.05 411.95 1145.94 412.78 1139.26 420.12 1141.53 429.78 1132.48 425.71 1123.99 430.85 1125.08 420.98 1117.56 414.5 1127.28 412.48 1131.12 403.33"/>
  <polygon class="cls-1" points="101.63 273.86 102.06 283.77 110.47 289.04 101.17 292.51 98.76 302.14 92.59 294.37 82.69 295.05 88.17 286.78 84.46 277.57 94.02 280.23 101.63 273.86"/>
  <polygon class="cls-1" points="139.76 856.01 145.11 864.37 155.02 864.7 148.73 872.37 151.47 881.91 142.23 878.29 134.02 883.85 134.6 873.94 126.78 867.84 136.38 865.34 139.76 856.01"/>
  <polygon class="cls-1" points="1849.02 669.07 1857.98 673.35 1866.58 668.4 1865.27 678.24 1872.64 684.89 1862.88 686.69 1858.83 695.75 1854.1 687.03 1844.24 685.98 1851.07 678.78 1849.02 669.07"/>
  <polygon class="cls-1" points="662.64 0 667 8.91 676.82 10.37 669.69 17.27 671.34 27.06 662.57 22.41 653.77 27 655.48 17.23 648.4 10.28 658.22 8.88 662.64 0"/>
  <polygon class="cls-1" points="282.87 118.95 266.59 119.62 271.24 135.23 258.34 125.28 251.87 140.23 248.39 124.31 233.82 131.6 241.38 117.17 225.53 113.39 240.6 107.2 230.89 94.11 246.42 99.06 247.39 82.79 256.1 96.56 267.3 84.72 265.13 100.87 281.32 99 269.27 109.98 282.87 118.95"/>
  <polygon class="cls-1" points="1442.37 528.76 1430.43 532.77 1437.24 543.36 1425.52 538.75 1423.94 551.24 1417.92 540.18 1408.68 548.73 1411.18 536.39 1398.6 537 1408.46 529.15 1398.43 521.53 1411.02 521.85 1408.23 509.57 1417.67 517.91 1423.43 506.71 1425.3 519.17 1436.91 514.29 1430.34 525.03 1442.37 528.76"/>
  <polygon class="cls-1" points="82.26 669.15 58.9 670.1 65.57 692.5 47.07 678.22 37.78 699.67 32.79 676.83 11.88 687.29 22.73 666.59 0 661.17 21.62 652.28 7.69 633.52 29.96 640.61 31.35 617.28 43.86 637.02 59.92 620.05 56.8 643.21 80.02 640.53 62.75 656.27 82.26 669.15"/>
  <polygon class="cls-1" points="1274.59 227.11 1283.47 243.34 1299.69 252.21 1283.47 261.09 1274.59 277.31 1265.72 261.09 1249.49 252.21 1265.72 243.34 1274.59 227.11"/>
  <polygon class="cls-1" points="1297.64 215.11 1302.58 224.14 1311.6 229.07 1302.58 234.01 1297.64 243.03 1292.71 234.01 1283.68 229.07 1292.71 224.14 1297.64 215.11"/>
  <polygon class="cls-1" points="313.19 908.86 317.61 916.94 325.69 921.36 317.61 925.78 313.19 933.87 308.77 925.78 300.68 921.36 308.77 916.94 313.19 908.86"/>
  <polygon class="cls-1" points="566.19 405.67 576.97 425.39 596.69 436.17 576.97 446.96 566.19 466.68 555.4 446.96 535.68 436.17 555.4 425.39 566.19 405.67"/>
  <polygon class="cls-1" points="1190.19 633.86 1194.61 641.94 1202.69 646.36 1194.61 650.78 1190.19 658.87 1185.77 650.78 1177.68 646.36 1185.77 641.94 1190.19 633.86"/>
</svg>